<?xml version="1.0" encoding="UTF-8" standalone="no"?>
<!DOCTYPE svg PUBLIC "-//W3C//DTD SVG 1.1//EN" "http://www.w3.org/Graphics/SVG/1.1/DTD/svg11.dtd">
<svg version="1.1" xmlns="http://www.w3.org/2000/svg" xmlns:xlink="http://www.w3.org/1999/xlink" preserveAspectRatio="xMidYMid meet" viewBox="111.46868653372064 148.20727125400668 23.99995548138105 15.400000000000006" width="20" height="11.4"><defs><path d="M121.48 160.2C120.62 159.34 113.74 152.46 112.88 151.6C112.33 151.05 112.33 150.16 112.88 149.62C113.43 149.07 114.31 149.07 114.86 149.62C115.37 150.12 117.9 152.66 122.47 157.23C127.03 152.66 129.57 150.12 130.08 149.62C130.62 149.07 131.51 149.07 132.06 149.62C132.61 150.16 132.61 151.05 132.06 151.6C131.2 152.46 124.32 159.34 123.46 160.2C123.19 160.47 122.83 160.61 122.47 160.61C122.11 160.61 121.75 160.47 121.48 160.2Z" id="a1b1nHMlL"></path></defs><g><g><use xlink:href="#a1b1nHMlL" opacity="1" fill="#ffffff" fill-opacity="1"></use><g><use xlink:href="#a1b1nHMlL" opacity="1" fill-opacity="0" stroke="#000000" stroke-width="1" stroke-opacity="0"></use></g></g></g></svg>