<?xml version="1.0" encoding="UTF-8" standalone="no"?>
<!DOCTYPE svg PUBLIC "-//W3C//DTD SVG 1.1//EN" "http://www.w3.org/Graphics/SVG/1.1/DTD/svg11.dtd">
<svg version="1.1" xmlns="http://www.w3.org/2000/svg" xmlns:xlink="http://www.w3.org/1999/xlink" preserveAspectRatio="xMidYMid meet" viewBox="7 14.999999999999996 34 33.03999999999999" width="30" height="29.04"><defs><path d="M35.1 42.14C35.1 32.84 35.1 27.68 35.1 26.65C35.1 26.38 34.88 26.16 34.61 26.16C34.13 26.16 31.71 26.16 27.35 26.16C27.35 20.36 27.35 17.13 27.35 16.48C27.35 16.22 27.14 16 26.87 16C26.1 16 19.9 16 19.13 16C18.86 16 18.65 16.22 18.65 16.48C18.65 16.87 18.65 18.81 18.65 22.29C14.29 22.29 11.87 22.29 11.39 22.29C11.12 22.29 10.9 22.51 10.9 22.78C10.9 24.07 10.9 30.52 10.9 42.14C9.45 42.14 8.65 42.14 8.48 42.14C8.22 42.14 8 42.35 8 42.62C8 42.81 8 44.36 8 44.56C8 44.82 8.22 45.04 8.48 45.04C11.39 45.04 34.61 45.04 37.52 45.04C37.78 45.04 38 44.82 38 44.56C38 44.36 38 42.81 38 42.62C38 42.35 37.78 42.14 37.52 42.14C37.19 42.14 36.39 42.14 35.1 42.14ZM27.35 27.13L34.13 27.13L34.13 42.14L27.35 42.14L27.35 27.13ZM19.61 16.97L26.39 16.97L26.39 42.14L19.61 42.14L19.61 16.97ZM11.87 23.26L18.65 23.26L18.65 42.14L11.87 42.14L11.87 23.26ZM37.03 44.07L8.97 44.07L8.97 43.1L37.03 43.1L37.03 44.07Z" id="a2Wr3OAso3"></path><path d="M22.52 22.29C22.52 22.56 22.73 22.78 23 22.78C23.27 22.78 23.48 22.56 23.48 22.29C23.48 21.9 23.48 18.81 23.48 18.42C23.48 18.15 23.27 17.94 23 17.94C22.95 17.94 22.56 17.94 22.52 17.94C22.25 17.94 22.03 18.15 22.03 18.42C22.03 18.69 22.25 18.9 22.52 18.9C22.52 19.58 22.52 21.95 22.52 22.29Z" id="hgCTZLVnq"></path><path d="M29.77 31.97C29.51 31.97 29.29 32.19 29.29 32.46C29.29 32.72 29.51 32.94 29.77 32.94C29.97 32.94 31.52 32.94 31.71 32.94C31.98 32.94 32.19 32.72 32.19 32.46C32.19 32.07 32.19 28.97 32.19 28.58C32.19 28.32 31.98 28.1 31.71 28.1C31.52 28.1 29.97 28.1 29.77 28.1C29.51 28.1 29.29 28.32 29.29 28.58C29.29 28.85 29.51 29.07 29.77 29.07C29.87 29.07 30.35 29.07 31.23 29.07L31.23 30.04C30.65 30.04 30.32 30.04 30.26 30.04C29.99 30.04 29.77 30.25 29.77 30.52C29.77 30.79 29.99 31 30.26 31C30.32 31 30.65 31 31.23 31L31.23 31.97C30.45 31.97 29.97 31.97 29.77 31.97Z" id="aahn5bTmT"></path><path d="M14.29 24.23C14.02 24.23 13.81 24.44 13.81 24.71C13.81 24.98 14.02 25.2 14.29 25.2C14.39 25.2 14.87 25.2 15.74 25.2L15.74 25.48C14.67 26.56 14.07 27.15 13.95 27.27C13.86 27.36 13.81 27.49 13.81 27.62C13.81 27.71 13.81 28.49 13.81 28.58C13.81 28.85 14.02 29.07 14.29 29.07C14.48 29.07 16.03 29.07 16.23 29.07C16.49 29.07 16.71 28.85 16.71 28.58C16.71 28.32 16.49 28.1 16.23 28.1C16.13 28.1 15.65 28.1 14.77 28.1L14.77 27.82C15.85 26.74 16.45 26.14 16.57 26.02C16.66 25.93 16.71 25.81 16.71 25.68C16.71 25.58 16.71 24.81 16.71 24.71C16.71 24.44 16.49 24.23 16.23 24.23C15.84 24.23 14.48 24.23 14.29 24.23Z" id="a1kwMKV25J"></path></defs><g><g><use xlink:href="#a2Wr3OAso3" opacity="1" fill="#ffffff" fill-opacity="1"></use><g><use xlink:href="#a2Wr3OAso3" opacity="1" fill-opacity="0" stroke="#000000" stroke-width="1" stroke-opacity="0"></use></g></g><g><use xlink:href="#hgCTZLVnq" opacity="1" fill="#ffffff" fill-opacity="1"></use><g><use xlink:href="#hgCTZLVnq" opacity="1" fill-opacity="0" stroke="#000000" stroke-width="1" stroke-opacity="0"></use></g></g><g><use xlink:href="#aahn5bTmT" opacity="1" fill="#ffffff" fill-opacity="1"></use><g><use xlink:href="#aahn5bTmT" opacity="1" fill-opacity="0" stroke="#000000" stroke-width="1" stroke-opacity="0"></use></g></g><g><use xlink:href="#a1kwMKV25J" opacity="1" fill="#ffffff" fill-opacity="1"></use><g><use xlink:href="#a1kwMKV25J" opacity="1" fill-opacity="0" stroke="#000000" stroke-width="1" stroke-opacity="0"></use></g></g></g></svg>