<?xml version="1.0" encoding="UTF-8" standalone="no"?>
<!DOCTYPE svg PUBLIC "-//W3C//DTD SVG 1.1//EN" "http://www.w3.org/Graphics/SVG/1.1/DTD/svg11.dtd">
<svg version="1.1" xmlns="http://www.w3.org/2000/svg" xmlns:xlink="http://www.w3.org/1999/xlink" preserveAspectRatio="xMidYMid meet" viewBox="-1 -1.0000000000000036 34 34" width="30" height="30"><defs><path d="M2.48 18.01C2.48 18.73 3.07 19.33 3.8 19.33C4.6 19.33 11.02 19.33 11.83 19.33C12.55 19.33 13.15 18.73 13.15 18.01C13.15 16.98 13.15 8.74 13.15 7.71C13.15 6.98 12.55 6.39 11.83 6.39C11.02 6.39 4.6 6.39 3.8 6.39C3.07 6.39 2.48 6.98 2.48 7.71C2.48 9.77 2.48 16.98 2.48 18.01ZM12.27 18.01C12.27 18.25 12.07 18.45 11.83 18.45C11.02 18.45 4.6 18.45 3.8 18.45C3.55 18.45 3.36 18.25 3.36 18.01C3.36 16.98 3.36 8.74 3.36 7.71C3.36 7.47 3.55 7.27 3.8 7.27C4.6 7.27 11.02 7.27 11.83 7.27C12.07 7.27 12.27 7.47 12.27 7.71C12.27 9.77 12.27 16.98 12.27 18.01Z" id="b2GZ385FG2"></path><path d="M15.44 11.16C15.44 10.92 15.24 10.72 15 10.72C14.76 10.72 14.56 10.92 14.56 11.16C14.56 11.4 14.76 11.6 15 11.6C15.24 11.6 15.44 11.4 15.44 11.16Z" id="e1ilzCFL9j"></path><path d="M15 14.99C15.24 14.99 15.44 14.8 15.44 14.55C15.44 14.31 15.24 14.12 15 14.12C14.76 14.12 14.56 14.31 14.56 14.55C14.56 14.8 14.76 14.99 15 14.99Z" id="e1crxHiBzv"></path><path d="M6 15.12C5.99 15.05 5.99 14.97 5.99 14.9C5.99 14.66 5.79 14.46 5.55 14.46C5.31 14.46 5.11 14.66 5.11 14.9C5.11 15.01 5.12 15.13 5.13 15.24C5.3 16.46 6.36 17.38 7.59 17.38C8.96 17.38 10.07 16.27 10.07 14.9C10.07 14.05 9.64 13.31 9 12.86C9.64 12.41 10.07 11.66 10.07 10.82C10.07 9.45 8.96 8.34 7.59 8.34C6.41 8.34 5.38 9.18 5.15 10.34C5.11 10.57 5.26 10.8 5.5 10.85C5.74 10.9 5.97 10.74 6.02 10.5C6.16 9.76 6.83 9.21 7.59 9.21C8.47 9.21 9.19 9.93 9.19 10.82C9.19 11.7 8.47 12.42 7.59 12.42C7.35 12.42 7.15 12.61 7.15 12.86C7.15 13.1 7.35 13.3 7.59 13.3C8.47 13.3 9.19 14.02 9.19 14.9C9.19 15.78 8.47 16.5 7.59 16.5C6.79 16.5 6.11 15.91 6 15.12Z" id="aMI6XdAsL"></path><path d="M23.23 16.93C23.23 16.13 23.23 9.75 23.23 8.95C23.23 8.71 23.03 8.51 22.79 8.51C22.62 8.51 21.26 8.51 21.09 8.51C20.84 8.51 20.65 8.71 20.65 8.95C20.65 9.2 20.84 9.39 21.09 9.39C21.17 9.39 21.59 9.39 22.35 9.39C22.35 13.92 22.35 16.43 22.35 16.93C22.35 17.17 22.55 17.37 22.79 17.37C23.03 17.37 23.23 17.17 23.23 16.93Z" id="bsGPz1Pu2"></path><path d="M27.52 14.82C27.52 14.1 27.52 8.42 27.52 7.71C27.52 6.98 26.93 6.39 26.2 6.39C25.4 6.39 18.98 6.39 18.17 6.39C17.45 6.39 16.85 6.98 16.85 7.71C16.85 8.74 16.85 16.98 16.85 18.01C16.85 18.73 17.45 19.33 18.17 19.33C18.98 19.33 25.4 19.33 26.2 19.33C26.93 19.33 27.52 18.73 27.52 18.01C27.52 17.88 27.52 16.86 27.52 16.73C27.52 16.49 27.33 16.29 27.08 16.29C26.84 16.29 26.64 16.49 26.64 16.73C26.64 16.86 26.64 17.88 26.64 18.01C26.64 18.25 26.45 18.45 26.2 18.45C25.4 18.45 18.98 18.45 18.17 18.45C17.93 18.45 17.73 18.25 17.73 18.01C17.73 16.98 17.73 8.74 17.73 7.71C17.73 7.47 17.93 7.27 18.17 7.27C18.98 7.27 25.4 7.27 26.2 7.27C26.45 7.27 26.64 7.47 26.64 7.71C26.64 8.42 26.64 14.1 26.64 14.82C26.64 15.06 26.84 15.26 27.08 15.26C27.33 15.26 27.52 15.06 27.52 14.82Z" id="b9LMdnPax"></path><path d="M21.75 2.41C21.75 1.75 21.75 1.39 21.75 1.32C21.75 0.59 21.16 0 20.43 0C19.35 0 10.65 0 9.57 0C8.84 0 8.25 0.59 8.25 1.32C8.25 1.39 8.25 1.75 8.25 2.41C6.8 2.41 6 2.41 5.84 2.41C5.6 2.41 5.4 2.61 5.4 2.85C5.4 3.09 5.6 3.29 5.84 3.29C6 3.29 6.8 3.29 8.25 3.29C8.25 3.94 8.25 4.31 8.25 4.38C8.25 5.11 8.84 5.7 9.57 5.7C10.02 5.7 13.6 5.7 14.04 5.7C14.29 5.7 14.48 5.5 14.48 5.26C14.48 5.02 14.29 4.82 14.04 4.82C13.6 4.82 10.02 4.82 9.57 4.82C9.33 4.82 9.13 4.62 9.13 4.38C9.13 4.07 9.13 1.62 9.13 1.32C9.13 1.08 9.33 0.88 9.57 0.88C10.65 0.88 19.35 0.88 20.43 0.88C20.67 0.88 20.87 1.08 20.87 1.32C20.87 1.62 20.87 4.07 20.87 4.38C20.87 4.62 20.67 4.82 20.43 4.82C19.98 4.82 16.4 4.82 15.96 4.82C15.71 4.82 15.52 5.02 15.52 5.26C15.52 5.5 15.71 5.7 15.96 5.7C16.4 5.7 19.98 5.7 20.43 5.7C21.16 5.7 21.75 5.11 21.75 4.38C21.75 4.31 21.75 3.94 21.75 3.29C25.56 3.29 27.67 3.29 28.1 3.29C28.66 3.29 29.12 3.75 29.12 4.31C29.12 6.02 29.12 19.69 29.12 21.4C29.12 21.97 28.66 22.43 28.1 22.43C25.48 22.43 4.52 22.43 1.9 22.43C1.34 22.43 0.88 21.97 0.88 21.4C0.88 19.69 0.88 6.02 0.88 4.31C0.88 3.75 1.34 3.29 1.9 3.29C2.11 3.29 3.72 3.29 3.92 3.29C4.17 3.29 4.36 3.09 4.36 2.85C4.36 2.61 4.17 2.41 3.92 2.41C3.72 2.41 2.11 2.41 1.9 2.41C0.85 2.41 0 3.26 0 4.31C0 6.02 0 19.69 0 21.4C0 22.45 0.85 23.3 1.9 23.3C2.6 23.3 6.05 23.3 12.27 23.3L12.27 25C12.23 25 12.2 25 12.2 25C11.63 25 11.17 25.46 11.17 26.02C11.17 26.32 11.17 28.68 11.17 28.97C11.17 29.54 11.63 30 12.2 30C12.76 30 17.24 30 17.8 30C18.37 30 18.83 29.54 18.83 28.97C18.83 28.68 18.83 26.32 18.83 26.02C18.83 25.46 18.37 25 17.8 25C17.8 25 17.77 25 17.73 25L17.73 23.3C23.95 23.3 27.4 23.3 28.1 23.3C29.15 23.3 30 22.45 30 21.4C30 19.69 30 6.02 30 4.31C30 3.26 29.15 2.41 28.1 2.41C28.1 2.41 25.98 2.41 21.75 2.41ZM17.95 28.97C17.95 29.06 17.88 29.12 17.8 29.12C17.24 29.12 12.76 29.12 12.2 29.12C12.12 29.12 12.05 29.06 12.05 28.97C12.05 28.68 12.05 26.32 12.05 26.02C12.05 25.94 12.12 25.88 12.2 25.88C12.76 25.88 17.24 25.88 17.8 25.88C17.88 25.88 17.95 25.94 17.95 26.02C17.95 26.61 17.95 28.68 17.95 28.97ZM16.85 25L13.15 25L13.15 23.3L16.85 23.3L16.85 25Z" id="c5ahnQ90Aw"></path></defs><g><g><use xlink:href="#b2GZ385FG2" opacity="1" fill="#ffffff" fill-opacity="1"></use><g><use xlink:href="#b2GZ385FG2" opacity="1" fill-opacity="0" stroke="#000000" stroke-width="1" stroke-opacity="0"></use></g></g><g><use xlink:href="#e1ilzCFL9j" opacity="1" fill="#ffffff" fill-opacity="1"></use><g><use xlink:href="#e1ilzCFL9j" opacity="1" fill-opacity="0" stroke="#000000" stroke-width="1" stroke-opacity="0"></use></g></g><g><use xlink:href="#e1crxHiBzv" opacity="1" fill="#ffffff" fill-opacity="1"></use><g><use xlink:href="#e1crxHiBzv" opacity="1" fill-opacity="0" stroke="#000000" stroke-width="1" stroke-opacity="0"></use></g></g><g><use xlink:href="#aMI6XdAsL" opacity="1" fill="#ffffff" fill-opacity="1"></use><g><use xlink:href="#aMI6XdAsL" opacity="1" fill-opacity="0" stroke="#000000" stroke-width="1" stroke-opacity="0"></use></g></g><g><use xlink:href="#bsGPz1Pu2" opacity="1" fill="#ffffff" fill-opacity="1"></use><g><use xlink:href="#bsGPz1Pu2" opacity="1" fill-opacity="0" stroke="#000000" stroke-width="1" stroke-opacity="0"></use></g></g><g><use xlink:href="#b9LMdnPax" opacity="1" fill="#ffffff" fill-opacity="1"></use><g><use xlink:href="#b9LMdnPax" opacity="1" fill-opacity="0" stroke="#000000" stroke-width="1" stroke-opacity="0"></use></g></g><g><use xlink:href="#c5ahnQ90Aw" opacity="1" fill="#ffffff" fill-opacity="1"></use><g><use xlink:href="#c5ahnQ90Aw" opacity="1" fill-opacity="0" stroke="#000000" stroke-width="1" stroke-opacity="0"></use></g></g></g></svg>