<?xml version="1.0" encoding="UTF-8" standalone="no"?>
<!DOCTYPE svg PUBLIC "-//W3C//DTD SVG 1.1//EN" "http://www.w3.org/Graphics/SVG/1.1/DTD/svg11.dtd">
<svg version="1.1" xmlns="http://www.w3.org/2000/svg" xmlns:xlink="http://www.w3.org/1999/xlink" preserveAspectRatio="xMidYMid meet" viewBox="-1 -1 34 34" width="30" height="30"><defs><path d="M6.72 6.83C5.11 8.43 4.32 10.67 4.55 12.97C4.61 13.54 5.09 13.97 5.65 13.97C5.69 13.97 5.73 13.96 5.76 13.96C6.37 13.9 6.82 13.36 6.76 12.75C6.59 11.12 7.15 9.53 8.28 8.39C8.72 7.96 8.72 7.26 8.28 6.83C7.85 6.39 7.15 6.39 6.72 6.83Z" id="j2ukqKiAkD"></path><path d="M0 12.67C0 19.66 5.68 25.34 12.67 25.34C19.66 25.34 25.34 19.66 25.34 12.67C25.34 5.68 19.66 0 12.67 0C5.68 0 0 5.68 0 12.67ZM2.22 12.67C2.22 6.91 6.91 2.22 12.67 2.22C18.44 2.22 23.13 6.91 23.13 12.67C23.13 18.44 18.44 23.13 12.67 23.13C6.91 23.13 2.22 18.44 2.22 12.67Z" id="dZUBL34kz"></path><path d="M21.62 20.05C21.19 19.62 20.49 19.62 20.05 20.05C19.62 20.49 19.62 21.19 20.05 21.62C20.86 22.43 27.3 28.87 28.11 29.68C28.32 29.89 28.61 30 28.89 30C29.18 30 29.46 29.89 29.68 29.68C30.11 29.24 30.11 28.54 29.68 28.11C28.06 26.5 22.43 20.86 21.62 20.05Z" id="eOiZKQLv"></path></defs><g><g><use xlink:href="#j2ukqKiAkD" opacity="1" fill="#ffffff" fill-opacity="1"></use><g><use xlink:href="#j2ukqKiAkD" opacity="1" fill-opacity="0" stroke="#000000" stroke-width="1" stroke-opacity="0"></use></g></g><g><use xlink:href="#dZUBL34kz" opacity="1" fill="#ffffff" fill-opacity="1"></use><g><use xlink:href="#dZUBL34kz" opacity="1" fill-opacity="0" stroke="#000000" stroke-width="1" stroke-opacity="0"></use></g></g><g><use xlink:href="#eOiZKQLv" opacity="1" fill="#ffffff" fill-opacity="1"></use><g><use xlink:href="#eOiZKQLv" opacity="1" fill-opacity="0" stroke="#000000" stroke-width="1" stroke-opacity="0"></use></g></g></g></svg>